<?xml version="1.0" encoding="UTF-8"?>
<svg id="Layer_1" data-name="Layer 1" xmlns="http://www.w3.org/2000/svg" version="1.1" xmlns:xodm="http://www.corel.com/coreldraw/odm/2003" viewBox="0 0 192.8 187">
  <defs>
    <style>
      .cls-1 {
        fill: #fff;
        stroke-width: 0px;
      }
    </style>
  </defs>
  <path class="cls-1" d="M94,1.4c14.1,0,27.6,3.2,39.5,8.8v3.1c-11.9-5.9-25.4-9.2-39.5-9.2C44.4,4.2,4.2,44.4,4.2,94s40.2,89.8,89.8,89.8,89.8-40.2,89.8-89.8-1.5-18.8-4.3-27.5h2.9c2.7,8.7,4.1,17.9,4.1,27.5,0,51.1-41.5,92.6-92.6,92.6S1.4,145.2,1.4,94,42.9,1.4,94,1.4h0ZM185.1,22.2h7v34.8h-7.3v-25.7l-17.7,12.5-4.7-3.3-12.9-9.1v25.6h-7.3V22.2h7.3l17.7,12.5,18-12.5h-.1ZM112.8,54.6c-2-.2-5.3-1-8,1.2-4.7,3.7-2.7,11.8,3.1,12.3-.4,1.6-3.1,5.9-4.1,7.8-1.9,3.9-5,10.4-7.7,13.1-8.7,8.7-17.1,9.5-29.1,9.5s-8.7-.9-11.9-1.7c-3.8-.9-7-2-10.5-3.4-11-4.4-13.6-9.1-16.6-11.1.5,5.6,2.6,12.6,6,16.7.9,1,2.9,3,4.2,3.4v.6c-1.8,0-3.5.7-4.6,1.3-1.2.6-2.9,1.6-3.3,2.9,2.3,0,7,1.8,7.5,4-3.1,0-6.5,2-7.2,5,3.6,0,7.9,4.6,9.6,6.8,4.5,6.1,4,7.7,11.8,12.9,11.8,7.8,27.5,8.1,38.8-.4,4.3-3.2,6.2-5.9,8.8-10.3,1.1-1.7,1.5-3.5,2.1-4.5,0,4.5-1.3,10.6-2.8,13.7-6.1,13.1-18,16.3-33.8,16.3.4.4,0,.1.8.5,4.2,2.1,12.9,3.8,17.7,3.8-1.9,3.5-7.9,1.3-7.9,6.6s2.1,3.6,4.3,3.6c4.1,0,9.2-8.8,17.1-2.2,6.9,5.8,10.9,1,10.9-1.1s-3.3-4-5.1-4.8c-2.3-.9-5.8-1.8-8.4-1.1v-1.7c7,0,21.2-6.3,26.6-11.6,3.5-3.5,6-5.9,8.4-10.7,2.5-5.1,3.9-9.5,3.9-15.6,0-14.6-4.6-11.1-4.6-26.3s1.4-2.9,2.4-3.9c.9-.9,4.4-4.1,5.5-4.3,1.3-.3,2.1-.2,2.7,0,2.4.2,3.3.9,4.8,1.7-.1-6.3-5-9.5-5.3-10.1-.6-1.2,0-3.5-1.5-6.1-.9-1.6-2.3-3.4-4-3.9.4-1.3,1.3-1.7,1.3-3.3,0-4.1-4.2-7.4-8.6-5.3-.4-1.6-1.2-2.7-2.3-3.6-4.5-3.5-10.8-.9-11.2,3.3h.2ZM128.4,68.5c1.7,0,3.1,1.4,3.1,3.1s-1.4,3.1-3.1,3.1-3.1-1.4-3.1-3.1,1.4-3.1,3.1-3.1Z"/>
</svg>