<?xml version="1.0" encoding="UTF-8"?>
<svg id="Layer_1" data-name="Layer 1" xmlns="http://www.w3.org/2000/svg" version="1.1" xmlns:xodm="http://www.corel.com/coreldraw/odm/2003" viewBox="0 0 192.8 187">
  <defs>
    <style>
      .cls-1 {
        fill: #fff;
        stroke-width: 0px;
      }
    </style>
  </defs>
  <path class="cls-1" d="M183.5,20.5h7v34.5h-7.2v-25.5l-17.6,12.4-4.7-3.3-12.8-9v25.4h-7.2V20.6h7.2l17.5,12.4,17.8-12.4h0ZM93.7,1.9c14,0,27.3,3.1,39.1,8.8v3c-11.8-5.8-25.1-9.1-39.1-9.1C44.6,4.6,4.8,44.4,4.8,93.5s39.8,88.9,88.9,88.9,88.9-39.8,88.9-88.9-1.5-18.6-4.2-27.2h2.9c2.7,8.6,4.1,17.7,4.1,27.2,0,50.6-41,91.6-91.6,91.6S2.2,144.1,2.2,93.5,43.1,1.9,93.7,1.9h0ZM75.4,144.1c0,.8.3,1,1,1h83.3v-52.4h-48.7v-17.5h-35.6v68.9ZM82.3,79.5h8.5v6.6h-8.5v-6.6ZM132.8,99.4h8.5v6.6h-8.5v-6.6ZM145.3,99.4h8.5v6.6h-8.5v-6.6ZM132.8,109.3h8.5v6.6h-8.5v-6.6ZM145.3,109.3h8.5v6.6h-8.5v-6.6ZM107.5,99.4h8.5v6.6h-8.5v-6.6ZM120,99.4h8.5v6.6h-8.5v-6.6ZM107.5,109.3h8.5v6.6h-8.5v-6.6ZM120,109.3h8.5v6.6h-8.5v-6.6ZM82.3,99.4h8.5v6.6h-8.5v-6.6ZM94.8,99.4h8.5v6.6h-8.5v-6.6ZM82.3,109.3h8.5v6.6h-8.5v-6.6ZM94.8,79.5h8.5v6.6h-8.5v-6.6ZM82.3,89.4h8.5v6.6h-8.5v-6.6ZM94.8,89.4h8.5v6.6h-8.5v-6.6ZM94.8,109.3h8.5v6.6h-8.5v-6.6ZM47.5,144.4h22.8c0-5-3.1-28.6-3.7-34.6l-2.9-25.7c-.2-1.4-.3-3.1-.5-4.2-.2-1.8-.4-2.7-.4-4.6h-8.1l-6.6,60.2c-.3,3.1-.7,5.8-.7,9h.1ZM24.3,56.7c-10,0-8.4,11.1-.5,10.2.1,0,.9-.2,1.1-.2,1.2,0,.6-.2,1.2,0,.3,0,.8.8,1.7,1.2,3.2,1.7,7.5,1.4,10.8-.2,2.3-1,5.1,2.3,10.1-.6,2.4-1.5,1.8-2.8,3.2-2.8s4.1,1.1,5.1,1.7c1.6,1,2.2,2,2.7,4,4.7-5.4,3.5-12.8-5.1-12.8,0-1.4.3-.7.3-2,0-4.7-12.2-6.3-15.5-1.3-1.9-1.3-2.9-3-7.4-3s-9,3-7.7,5.7h0ZM54.9,73.5h8.1v-2.4h-8.1v2.4Z"/>
</svg>