<?xml version="1.0" encoding="UTF-8"?>
<svg id="Layer_1" data-name="Layer 1" xmlns="http://www.w3.org/2000/svg" version="1.1" xmlns:xodm="http://www.corel.com/coreldraw/odm/2003" viewBox="0 0 192.8 187">
  <defs>
    <style>
      .cls-1 {
        fill: #fff;
        stroke-width: 0px;
      }
    </style>
  </defs>
  <path class="cls-1" d="M94,2.3c13.9,0,27.1,3.1,39,8.7v3c-11.8-5.8-25-9-39-9C45.1,5,5.5,44.6,5.5,93.5s39.6,88.5,88.5,88.5,88.5-39.6,88.5-88.5-1.5-18.5-4.2-27.1h2.9c2.7,8.6,4.1,17.6,4.1,27.1,0,50.4-40.8,91.2-91.2,91.2S2.9,143.9,2.9,93.5,43.6,2.3,94,2.3h0ZM119.1,126.9h0c.5,1.2.9,8.4-.2,12.1-.4,1.3-.5,2.3-.3,2.2,2.7-.7,2.3-1,2.3,5.5l7.8.3c-.2-2.6-1.7-3.5-1.9-5.8-.4-4.3.5-10.1,1.5-14.1.4-1.7,1.1-5.2,1.7-6.4l.4-1c1.5-.4,2.9-.9,4-1.3,13.7-4.8,19.1-8.6,30.4-16.6-.7-.5-.9-1.2-1.3-2.4,6.9,4.9,8.8,1,7.9-6-.2-1.7.9-5.9-.1-6-.9,0-2,2.1-2.9,3-.8,1-1.6,1.8-2.6,2.1,0,0,1.6-.9,1.9-2.1-5,0-9.9.5-14.3-4.3-1.9-2.1-1.3-2.2-4.5-4.6-1.3-1.1-3.3-2.7-5.6-2.7.5-1.9,2.2-6,4.3-8-4.9,1.2-7.4,6.1-7.1,6.8.2-2.2,2.3-6.8,3.3-8.9-5.3,1.6-5.7,3.5-9,7-5.9,0-11.7-.3-17.6,0-16.4,0-27.4,5-44.7-1.1-8.2-2.9-19.8-4.4-28.2-.2-4.3,2.1-7.2,4.9-9.6,8.6-1,1.9-1.8,3.8-2.4,5.8-1.1,1.4-2.6,2-5.5,1.5,3.3-.7,5.9-4.5,5-7.6-1.1-4.2-6.7-5.1-9.9-2.1-1.8,1.7-2.3,5.9.4,9.1-1.6,0-5.6-1.4-5.4-1,1.2,2.7,10.4,4.7,14.3,4.2-.2.9-.3,1.9-.3,2.9-.3,7.3,2,14.7,6.6,19.9,1.8,2,2.5,1.7,2.2,5.9-.7,8.9-4.4,7.4-.8,13.2,1.2,2.1.9,4.7,1.8,6.7,1.1-.9.6-1,1.6-1.7l2.5,6.6h7.5c-1.2-2.6-3.6-9.3-3.1-12,0-.3.1-.6.2-.9,1,.9,1.9,1.9,2.8,3.1.5.8,1.1,1.8,1.6,3.3,1.2,3.4-.1,1.8,2.2,1.6l2,4.8h6.7l-2.9-5.6c-3-5.3-3.6-6.5-.6-9.8.7-.8.7-1,1.3-1.7,1.9-2.3,5-5.3,6.1-10h0l.4-1,3.1.8c9.7,2.3,19.5,3.1,29.9,3.3h5.3c-.4,5.2.7,7.9-.5,10.8-.8,1.9-4.2,7.4-3.1,7.4.7.4,1.1-1.1,2.9-1.1.4,1.8.3,2.9.3,5.2,1.1.6,4,1.7,5.5,1.7,0-5.9,1.3-8,3.4-12.8.7-1.4,1-2.4,1.6-3.8.6-1.2,1.1-2.2,1.5-3.3l.4.5h-.2,0ZM24.2,88.7c-3.6-4.2-.5-9.2,3.4-7.6,3.8,1.5.9,7.3-3.4,7.6ZM183,22.7h6.9v34.3h-7.2v-25.3l-17.5,12.3-4.7-3.3-12.7-9v25.2h-7.2V22.7h7.2l17.4,12.3,17.7-12.3h.1Z"/>
</svg>