<?xml version="1.0" encoding="UTF-8"?>
<!DOCTYPE svg PUBLIC "-//W3C//DTD SVG 1.1//EN" "http://www.w3.org/Graphics/SVG/1.1/DTD/svg11.dtd">
<!-- Creator: CorelDRAW -->
<svg xmlns="http://www.w3.org/2000/svg" xml:space="preserve" width="279.4mm" height="215.9mm" version="1.1" style="shape-rendering:geometricPrecision; text-rendering:geometricPrecision; image-rendering:optimizeQuality; fill-rule:evenodd; clip-rule:evenodd"
viewBox="0 0 27940 21590"
 xmlns:xlink="http://www.w3.org/1999/xlink"
 xmlns:xodm="http://www.corel.com/coreldraw/odm/2003">
 <defs>
  <style type="text/css">
   <![CDATA[
    .fil0 {fill:white}
   ]]>
  </style>
 </defs>
 <g id="Capa_x0020_1">
  <metadata id="CorelCorpID_0Corel-Layer"/>
  <g id="_2186841852976">
   <path class="fil0" d="M13659.35 7633.56c491.61,0 957.41,110.4 1374.16,307.52l0 106.53c-414.65,-203.63 -881.03,-318.1 -1374.16,-318.1 -1724.35,0 -3122.2,1397.84 -3122.2,3122.19 0,1724.33 1397.85,3122.18 3122.2,3122.18 1724.33,0 3122.17,-1397.85 3122.17,-3122.18 0,-333.01 -52.33,-653.74 -148.87,-954.67l100.83 0c93.56,301.63 143.99,622.26 143.99,954.67 0,1777.33 -1440.8,3218.12 -3218.12,3218.12 -1777.32,0 -3218.14,-1440.79 -3218.14,-3218.12 0,-1777.34 1440.82,-3218.14 3218.14,-3218.14zm888.14 4395.74l-0.11 0.39c17.13,40.53 31.7,295.65 -6.32,425.5 -13.35,45.67 -16.28,81.47 -12.25,77.14 96.26,-23.24 81.07,-35.77 81.07,194.98l273.7 10.73c-6.77,-93.01 -60.81,-125.21 -67.58,-205.71 -13.52,-152.05 18.57,-357.75 54.06,-499.04 15.21,-59.04 40.55,-184.27 59.13,-227.2l13.98 -35.66c53.06,-15.51 102.25,-31.58 139.75,-44.81 483.2,-169.94 674.1,-304.08 1071.12,-586.7 -25.34,-19.13 -32.99,-43.32 -45.61,-84.08 243.28,171.69 310.87,35.75 278.78,-211.08 -8.21,-60.82 31.04,-207.08 -5.08,-212.86 -30.48,4.04 -69.28,73.32 -103.06,107.34 -26.71,36.71 -56.33,64.28 -91.23,75.12 0,0 54.95,-31.04 66.04,-74.16 -177.41,0 -348.17,18.7 -503.63,-153.03 -65.87,-73.35 -47.29,-76.92 -157.1,-160.98 -47.3,-37.57 -116.53,-94.1 -197.63,-94.1 16.9,-67.99 77.2,-212.5 152,-281.56 -172.31,42.95 -260.88,213.65 -251.71,241.48 5.67,-78.47 79.85,-240.62 114.88,-314.8 -188.19,58.11 -200.12,122.37 -317.61,246.85 -207.44,-2.91 -413.71,-11.16 -621.73,-3.58 -577.18,0 -965.65,176.26 -1576.28,-37.57 -290.58,-103.74 -697.73,-153.82 -993.4,-7.13 -150.14,74.78 -254.1,171.32 -339.84,303.79 -34.62,66.96 -63.65,134.72 -85.84,203.46 -38.24,49.33 -90.37,71.59 -193.82,53.68 116.64,-22.94 207.19,-157.49 176.9,-269.46 -40.02,-147.91 -237.28,-179.01 -347.62,-73.17 -64.26,61.65 -80.27,206.54 13.32,321.76 -56.85,2.4 -197.93,-49.71 -190.47,-33.73 42.54,94.93 367.3,164.21 505.06,149.56 -5.63,33.39 -9.53,67.05 -11.57,100.95 -9.64,256.56 70.35,518.46 232.29,702.76 64.2,69.77 89.54,59.04 77.72,207.51 -25.34,313.02 -153.74,261.14 -28.73,466.85 43.92,73.34 30.42,164.55 64.22,236.12 40.53,-30.42 20.27,-33.97 55.74,-60.81l89.54 234.45 265.26 -3.7c-43.94,-87.64 -126.71,-325.56 -109.83,-418.59 1.84,-10.56 3.96,-20.89 6.3,-31.02 33.59,31.42 66.53,66.77 98.21,110.15 17.51,28.36 37.66,64.11 55.98,115.86 43.95,119.85 -3.88,62.15 77.22,54.99l71.72 167.81 236.27 0.8 -101.36 -196.78c-106.44,-186.02 -128.42,-228.95 -21.98,-345.22 23.67,-26.84 25.34,-33.97 45.63,-60.81 65.89,-82.3 177.38,-187.84 214.57,-354.18l-2.48 -0.62 13.13 -34.79 110.96 28.26c342.11,82.62 686.88,110.21 1054.43,115.35l3.1 0.02 19.43 0.24 19.49 0.23 144.89 1.78c-13.3,181.69 23.59,279.42 -18.16,381.42 -27.03,66.21 -147.51,259.88 -109.83,259.39 24.96,12.83 40.55,-37.57 103.08,-37.57 13.52,64.41 11.83,103.74 11.83,182.44 37.16,19.69 140.22,59.06 194.26,60.84 0,-207.49 47.34,-280.83 121.67,-452.57 23.65,-50.08 33.76,-84.07 57.43,-132.36 19.5,-42.86 37.66,-78.7 53.3,-117.47l14.4 16.9zm-3349.18 -1347.27c-127.84,-149.56 -16.62,-323.95 121.35,-268.64 132.38,53.06 32.84,256.02 -121.35,268.64zm5602.15 -2328.7l244.69 0 0 1208.46 -253.66 0 0 -892.39 -616.48 434.07 -165.09 -116.21 -448.56 -315.85 0 890.38 -253.69 0 0 -996.76 0 -209.92 0 -1.78 245.64 0 8.05 0 613.65 433.6 625.45 -433.6z"/>
   <path class="fil0" d="M25596.07 8130.22l246.22 0 0 1216.04 -255.26 0 0 -897.97 -620.34 436.78 -166.11 -116.95 -451.38 -317.82 0 895.96 -255.25 0 0 -1003 0 -211.25 0 -1.79 247.14 0 8.11 0 617.49 436.33 629.38 -436.33zm-3168.68 -658.88c493.88,0 961.83,110.92 1380.52,308.95l0 107c-416.57,-204.56 -885.09,-319.57 -1380.52,-319.57 -1732.33,0 -3136.65,1404.32 -3136.65,3136.65 0,1732.31 1404.32,3136.63 3136.65,3136.63 1732.31,0 3136.62,-1404.32 3136.62,-3136.63 0,-334.56 -52.57,-656.76 -149.57,-959.1l101.3 0c93.99,303.04 144.66,625.14 144.66,959.1 0,1785.54 -1447.47,3233.01 -3233.01,3233.01 -1785.56,0 -3233.03,-1447.47 -3233.03,-3233.01 0,-1785.56 1447.47,-3233.03 3233.03,-3233.03zm-647 5017.32c0,27.21 9.08,36.31 36.27,36.31l2938.41 0 0 -1849.96 -1718.6 0 0 -617.17 -1256.08 0 0 2430.82zm244.74 -2279l300.15 0 0 234.37 -300.15 0 0 -234.37zm1782.41 703.1l300.14 0 0 234.34 -300.14 0 0 -234.34zm439.93 0l300.16 0 0 234.34 -300.16 0 0 -234.34zm-439.93 349.48l300.14 0 0 234.36 -300.14 0 0 -234.36zm439.93 0l300.16 0 0 234.36 -300.16 0 0 -234.36zm-1334.22 -349.48l300.15 0 0 234.34 -300.15 0 0 -234.34zm439.95 0l300.15 0 0 234.34 -300.15 0 0 -234.34zm-439.95 349.48l300.15 0 0 234.36 -300.15 0 0 -234.36zm439.95 0l300.15 0 0 234.36 -300.15 0 0 -234.36zm-1328.07 -349.48l300.15 0 0 234.34 -300.15 0 0 -234.34zm439.95 0l300.16 0 0 234.34 -300.16 0 0 -234.34zm-439.95 349.48l300.15 0 0 234.36 -300.15 0 0 -234.36zm439.95 -1052.58l300.16 0 0 234.37 -300.16 0 0 -234.37zm-439.95 349.5l300.15 0 0 234.34 -300.15 0 0 -234.34zm439.95 0l300.16 0 0 234.34 -300.16 0 0 -234.34zm0 703.08l300.16 0 0 234.36 -300.16 0 0 -234.36zm-1667.17 1238.52l805.63 0c0,-175.47 -108.82,-1010.46 -130,-1222.22l-101.26 -907.57c-6.05,-48.42 -10.58,-110.42 -16.63,-149.76 -7.56,-62.03 -13.59,-96.81 -13.59,-163.37l-284.18 0 -234.28 2125.27c-12.09,110.42 -25.69,204.2 -25.69,317.65zm-817.74 -3094.86c-352.18,0 -294.74,390.26 -18.14,360.02 4.53,0 30.24,-6.05 39.3,-7.58 42.32,-4.52 22.69,-6.05 40.82,3.03 12.09,4.55 28.72,27.24 58.96,43.87 113.34,58.98 263,48.39 380.89,-6.05 80.1,-36.3 178.35,80.18 355.2,-21.19 86.15,-51.42 64.99,-99.84 113.37,-99.84 55.93,0 143.6,37.84 178.35,59 55.93,34.79 78.62,69.6 95.23,142.21 164.76,-189.1 122.44,-450.78 -178.35,-450.78 4.52,-48.4 12.08,-25.72 12.08,-71.11 0,-164.86 -429.27,-220.84 -545.66,-46.87 -66.49,-45.39 -101.26,-107.39 -259.97,-107.39 -160.22,0 -317.41,105.87 -272.08,202.68zm1077.71 592.96l284.18 0 0 -83.2 -284.18 0 0 83.2z"/>
   <path class="fil0" d="M5364.61 7584.78c499.08,0 971.93,112.09 1394.98,312.2l0 108.14c-420.93,-206.7 -894.35,-322.93 -1394.98,-322.93 -1750.47,0 -3169.51,1419.04 -3169.51,3169.51 0,1750.47 1419.04,3169.51 3169.51,3169.51 1750.47,0 3169.51,-1419.04 3169.51,-3169.51 0,-338.04 -53.13,-663.64 -151.12,-969.13l102.34 0c95,306.21 146.19,631.7 146.19,969.15 0,1804.25 -1462.67,3266.92 -3266.92,3266.92 -1804.27,0 -3266.9,-1462.67 -3266.9,-3266.92 0,-1804.26 1462.63,-3266.94 3266.9,-3266.94zm3214.09 731.84l248.28 0 0 1226.24 -257.42 0 0 -905.51 -625.52 440.47 -167.5 -117.95 -455.18 -320.49 0 903.48 -257.39 0 0 -1011.41 0 -213.02 0 -1.81 249.23 0 8.16 0 622.68 439.99 634.66 -439.99zm-2551.69 1142.8c-69.34,-6.93 -187.22,-34.67 -282.91,41.61 -165.02,131.74 -94.3,417.42 108.16,434.07 -12.47,56.86 -109.54,209.39 -144.21,274.59 -67.97,135.9 -177.52,367.49 -271.8,460.4 -307.89,306.47 -603.29,334.23 -1024.84,334.23 -134.54,0 -307.87,-30.53 -418.83,-58.25 -134.51,-31.9 -246.85,-70.74 -368.87,-119.27 -389.7,-155.32 -478.46,-320.34 -583.86,-391.09 16.65,196.94 90.16,443.79 212.18,589.39 31.9,36.08 101.23,106.78 148.39,119.27l0 22.2c-63.79,0 -122.04,24.96 -163.64,47.14 -42.98,20.81 -102.63,56.88 -115.11,104.02 80.45,0 246.86,65.18 266.28,140.06 -109.57,2.77 -230.22,69.33 -255.17,174.74 127.59,2.77 277.34,160.87 338.38,241.31 159.48,214.96 141.45,273.18 417.42,456.26 416.03,275.96 969.37,285.66 1368.75,-13.88 151.19,-112.33 219.14,-209.41 310.64,-363.34 37.44,-61.02 51.32,-124.82 74.88,-158.1 0,158.1 -44.37,374.44 -97.05,484.01 -216.34,463.17 -635.14,574.12 -1192.64,574.12 15.24,12.47 0,4.16 27.72,18.04 147,73.47 453.49,133.12 622.69,133.12 -66.56,124.82 -278.75,47.17 -278.75,231.59 0,73.49 73.48,127.58 151.17,127.58 145.6,0 323.11,-312 601.86,-77.65 244.06,205.26 385.52,36.06 385.52,-37.46 0,-80.42 -115.11,-141.44 -180.29,-169.18 -81.8,-31.89 -203.86,-62.38 -295.37,-40.21l0 -58.25c246.85,0 747.48,-220.5 938.84,-409.1 124.83,-124.81 212.18,-208.03 296.78,-377.21 87.37,-178.9 135.92,-335.61 135.92,-550.54 0,-515.9 -163.66,-391.11 -163.66,-929.18 0,-61 49.93,-104 84.62,-137.28 30.49,-30.51 156.69,-144.24 195.54,-152.55 44.36,-9.7 74.87,-5.55 95.68,-4.16 85.97,5.56 115.09,31.89 170.57,61.02 -4.16,-220.5 -174.75,-334.2 -187.22,-357.78 -22.19,-41.62 -2.77,-123.43 -52.7,-214.96 -30.51,-56.86 -80.42,-119.27 -142.83,-135.92 12.47,-47.14 45.75,-61.02 45.75,-116.48 0,-145.62 -146.98,-260.73 -302.3,-185.85 -12.5,-56.86 -41.62,-95.66 -81.85,-126.2 -158.08,-123.42 -382.75,-30.48 -393.84,115.12zm550.17 491.54c59.88,0 108.43,48.54 108.43,108.43 0,59.88 -48.55,108.43 -108.43,108.43 -59.91,0 -108.46,-48.55 -108.46,-108.43 0,-59.89 48.55,-108.43 108.46,-108.43z"/>
  </g>
 </g>
</svg>
