<?xml version="1.0" encoding="UTF-8"?>
<svg id="Layer_1" data-name="Layer 1" xmlns="http://www.w3.org/2000/svg" version="1.1" xmlns:xodm="http://www.corel.com/coreldraw/odm/2003" viewBox="0 0 676.1 187">
  <defs>
    <style>
      .cls-1 {
        fill: #fff;
        fill-rule: evenodd;
        stroke-width: 0px;
      }
    </style>
  </defs>
  <path class="cls-1" d="M336.8,2.8c13.9,0,27.1,3.1,39,8.7v3c-11.8-5.8-25-9-39-9-48.9,0-88.5,39.6-88.5,88.5s39.6,88.5,88.5,88.5,88.5-39.6,88.5-88.5-1.5-18.5-4.2-27.1h2.9c2.7,8.6,4.1,17.6,4.1,27.1,0,50.4-40.8,91.2-91.2,91.2s-91.2-40.8-91.2-91.2S286.4,2.8,336.8,2.8h0ZM361.9,127.4h0c.5,1.2.9,8.4-.2,12.1-.4,1.3-.5,2.3-.3,2.2,2.7-.7,2.3-1,2.3,5.5l7.8.3c-.2-2.6-1.7-3.5-1.9-5.8-.4-4.3.5-10.1,1.5-14.1.4-1.7,1.1-5.2,1.7-6.4l.4-1c1.5-.4,2.9-.9,4-1.3,13.7-4.8,19.1-8.6,30.4-16.6-.7-.5-.9-1.2-1.3-2.4,6.9,4.9,8.8,1,7.9-6-.2-1.7.9-5.9-.1-6-.9,0-2,2.1-2.9,3-.8,1-1.6,1.8-2.6,2.1,0,0,1.6-.9,1.9-2.1-5,0-9.9.5-14.3-4.3-1.9-2.1-1.3-2.2-4.5-4.6-1.3-1.1-3.3-2.7-5.6-2.7.5-1.9,2.2-6,4.3-8-4.9,1.2-7.4,6.1-7.1,6.8.2-2.2,2.3-6.8,3.3-8.9-5.3,1.6-5.7,3.5-9,7-5.9,0-11.7-.3-17.6,0-16.4,0-27.4,5-44.7-1.1-8.2-2.9-19.8-4.4-28.2-.2-4.3,2.1-7.2,4.9-9.6,8.6-1,1.9-1.8,3.8-2.4,5.8-1.1,1.4-2.6,2-5.5,1.5,3.3-.7,5.9-4.5,5-7.6-1.1-4.2-6.7-5.1-9.9-2.1-1.8,1.7-2.3,5.9.4,9.1-1.6,0-5.6-1.4-5.4-1,1.2,2.7,10.4,4.7,14.3,4.2-.2.9-.3,1.9-.3,2.9-.3,7.3,2,14.7,6.6,19.9,1.8,2,2.5,1.7,2.2,5.9-.7,8.9-4.4,7.4-.8,13.2,1.2,2.1.9,4.7,1.8,6.7,1.1-.9.6-1,1.6-1.7l2.5,6.6h7.5c-1.2-2.6-3.6-9.3-3.1-12,0-.3.1-.6.2-.9,1,.9,1.9,1.9,2.8,3.1.5.8,1.1,1.8,1.6,3.3,1.2,3.4-.1,1.8,2.2,1.6l2,4.8h6.7l-2.9-5.6c-3-5.3-3.6-6.5-.6-9.8.7-.8.7-1,1.3-1.7,1.9-2.3,5-5.3,6.1-10h0l.4-1,3.1.8c9.7,2.3,19.5,3.1,29.9,3.3h5.3c-.4,5.2.7,7.9-.5,10.8-.8,1.9-4.2,7.4-3.1,7.4.7.4,1.1-1.1,2.9-1.1.4,1.8.3,2.9.3,5.2,1.1.6,4,1.7,5.5,1.7,0-5.9,1.3-8,3.4-12.8.7-1.4,1-2.4,1.6-3.8.6-1.2,1.1-2.2,1.5-3.3l.4.5h-.2ZM267,89.2c-3.6-4.2-.5-9.2,3.4-7.6,3.8,1.5.9,7.3-3.4,7.6ZM425.8,23.2h6.9v34.3h-7.2v-25.3l-17.5,12.3-4.7-3.3-12.7-9v25.2h-7.2V23.2h7.2l17.4,12.3,17.7-12.3h.1Z"/>
  <path class="cls-1" d="M667.5,21h7v34.5h-7.2v-25.5l-17.6,12.4-4.7-3.3-12.8-9v25.4h-7.2V21.1h7.2l17.5,12.4,17.8-12.4h0ZM577.7,2.4c14,0,27.3,3.1,39.1,8.8v3c-11.8-5.8-25.1-9.1-39.1-9.1-49.1,0-88.9,39.8-88.9,88.9s39.8,88.9,88.9,88.9,88.9-39.8,88.9-88.9-1.5-18.6-4.2-27.2h2.9c2.7,8.6,4.1,17.7,4.1,27.2,0,50.6-41,91.6-91.6,91.6s-91.6-41-91.6-91.6S527.1,2.4,577.7,2.4h0ZM559.4,144.6c0,.8.3,1,1,1h83.3v-52.4h-48.7v-17.5h-35.6v68.9ZM566.3,80h8.5v6.6h-8.5v-6.6ZM616.8,99.9h8.5v6.6h-8.5v-6.6ZM629.3,99.9h8.5v6.6h-8.5v-6.6ZM616.8,109.8h8.5v6.6h-8.5v-6.6ZM629.3,109.8h8.5v6.6h-8.5v-6.6ZM591.5,99.9h8.5v6.6h-8.5v-6.6ZM604,99.9h8.5v6.6h-8.5v-6.6ZM591.5,109.8h8.5v6.6h-8.5v-6.6ZM604,109.8h8.5v6.6h-8.5v-6.6ZM566.3,99.9h8.5v6.6h-8.5v-6.6ZM578.8,99.9h8.5v6.6h-8.5v-6.6ZM566.3,109.8h8.5v6.6h-8.5v-6.6ZM578.8,80h8.5v6.6h-8.5v-6.6ZM566.3,89.9h8.5v6.6h-8.5v-6.6ZM578.8,89.9h8.5v6.6h-8.5v-6.6ZM578.8,109.8h8.5v6.6h-8.5v-6.6ZM531.5,144.9h22.8c0-5-3.1-28.6-3.7-34.6l-2.9-25.7c-.2-1.4-.3-3.1-.5-4.2-.2-1.8-.4-2.7-.4-4.6h-8.1l-6.6,60.2c-.3,3.1-.7,5.8-.7,9h.1ZM508.3,57.2c-10,0-8.4,11.1-.5,10.2.1,0,.9-.2,1.1-.2,1.2,0,.6-.2,1.2,0,.3,0,.8.8,1.7,1.2,3.2,1.7,7.5,1.4,10.8-.2,2.3-1,5.1,2.3,10.1-.6,2.4-1.5,1.8-2.8,3.2-2.8s4.1,1.1,5.1,1.7c1.6,1,2.2,2,2.7,4,4.7-5.4,3.5-12.8-5.1-12.8,0-1.4.3-.7.3-2,0-4.7-12.2-6.3-15.5-1.3-1.9-1.3-2.9-3-7.4-3s-9,3-7.7,5.7h0ZM538.9,74h8.1v-2.4h-8.1v2.4Z"/>
  <path class="cls-1" d="M94,1.4c14.1,0,27.6,3.2,39.5,8.8v3.1c-11.9-5.9-25.4-9.2-39.5-9.2C44.4,4.2,4.2,44.4,4.2,94s40.2,89.8,89.8,89.8,89.8-40.2,89.8-89.8-1.5-18.8-4.3-27.5h2.9c2.7,8.7,4.1,17.9,4.1,27.5,0,51.1-41.5,92.6-92.6,92.6S1.4,145.2,1.4,94,42.9,1.4,94,1.4h0ZM185.1,22.2h7v34.8h-7.3v-25.7l-17.7,12.5-4.7-3.3-12.9-9.1v25.6h-7.3V22.2h7.3l17.7,12.5,18-12.5h-.1ZM112.8,54.6c-2-.2-5.3-1-8,1.2-4.7,3.7-2.7,11.8,3.1,12.3-.4,1.6-3.1,5.9-4.1,7.8-1.9,3.9-5,10.4-7.7,13.1-8.7,8.7-17.1,9.5-29.1,9.5s-8.7-.9-11.9-1.7c-3.8-.9-7-2-10.5-3.4-11-4.4-13.6-9.1-16.6-11.1.5,5.6,2.6,12.6,6,16.7.9,1,2.9,3,4.2,3.4v.6c-1.8,0-3.5.7-4.6,1.3-1.2.6-2.9,1.6-3.3,2.9,2.3,0,7,1.8,7.5,4-3.1,0-6.5,2-7.2,5,3.6,0,7.9,4.6,9.6,6.8,4.5,6.1,4,7.7,11.8,12.9,11.8,7.8,27.5,8.1,38.8-.4,4.3-3.2,6.2-5.9,8.8-10.3,1.1-1.7,1.5-3.5,2.1-4.5,0,4.5-1.3,10.6-2.8,13.7-6.1,13.1-18,16.3-33.8,16.3.4.4,0,.1.8.5,4.2,2.1,12.9,3.8,17.7,3.8-1.9,3.5-7.9,1.3-7.9,6.6s2.1,3.6,4.3,3.6c4.1,0,9.2-8.8,17.1-2.2,6.9,5.8,10.9,1,10.9-1.1s-3.3-4-5.1-4.8c-2.3-.9-5.8-1.8-8.4-1.1v-1.7c7,0,21.2-6.3,26.6-11.6,3.5-3.5,6-5.9,8.4-10.7,2.5-5.1,3.9-9.5,3.9-15.6,0-14.6-4.6-11.1-4.6-26.3s1.4-2.9,2.4-3.9c.9-.9,4.4-4.1,5.5-4.3,1.3-.3,2.1-.2,2.7,0,2.4.2,3.3.9,4.8,1.7-.1-6.3-5-9.5-5.3-10.1-.6-1.2,0-3.5-1.5-6.1-.9-1.6-2.3-3.4-4-3.9.4-1.3,1.3-1.7,1.3-3.3,0-4.1-4.2-7.4-8.6-5.3-.4-1.6-1.2-2.7-2.3-3.6-4.5-3.5-10.8-.9-11.2,3.3h.2ZM128.4,68.5c1.7,0,3.1,1.4,3.1,3.1s-1.4,3.1-3.1,3.1-3.1-1.4-3.1-3.1,1.4-3.1,3.1-3.1Z"/>
</svg>