<?xml version="1.0" encoding="utf-8"?>
<!-- Generator: Adobe Illustrator 16.0.0, SVG Export Plug-In . SVG Version: 6.00 Build 0)  -->
<!DOCTYPE svg PUBLIC "-//W3C//DTD SVG 1.1//EN" "http://www.w3.org/Graphics/SVG/1.1/DTD/svg11.dtd">
<svg version="1.1" id="Layer_1" xmlns="http://www.w3.org/2000/svg" xmlns:xlink="http://www.w3.org/1999/xlink" x="0px" y="0px"
	 width="100px" height="100px" viewBox="0 0 100 100" enable-background="new 0 0 100 100" xml:space="preserve">
<path fill="#FFFFFF" d="M15.176,14.135C24.183,5.384,36.46-0.006,50.006-0.006c5.857,0,11.475,1.012,16.695,2.868"/>
<path fill="#FFFFFF" d="M66.701,2.862C61.48,1.014,55.863-0.006,50.006-0.006c-13.546,0-25.822,5.39-34.83,14.142
	c5.568,2.562,11.747,4.033,18.287,4.033c13.305,0,25.203-5.954,33.238-15.313V2.862L66.701,2.862z"/>
<path fill="#FFFFFF" d="M73.885,6.051C89.447,14.528,100.014,31.031,100.014,50c0,0.827-0.023,1.646-0.064,2.467"/>
<path fill="#FFFFFF" d="M99.949,52.467c0.039-0.82,0.064-1.64,0.064-2.467c0-18.969-10.566-35.472-26.131-43.949
	c-0.248,1.911-0.426,3.84-0.426,5.817c0,18.141,10.896,33.712,26.49,40.589v0.01H99.949z"/>
<path fill="#FFFFFF" d="M99.186,59.047c-2.98-0.434-6.025-0.668-9.127-0.668c-26.023,0-48.353,15.797-57.929,38.324
	c5.551,2.129,11.578,3.303,17.876,3.303C74.535,100.006,94.92,82.346,99.186,59.047z"/>
<path fill="#FFFFFF" d="M10.75,19.043C4.024,27.56,0,38.31,0,50c0,18.977,10.573,35.488,26.144,43.955
	c4.018-8.289,6.275-17.586,6.275-27.42c0-18.961-8.404-35.956-21.676-47.492H10.75z"/>
</svg>
