<?xml version="1.0" encoding="UTF-8"?>
<svg id="Layer_1" data-name="Layer 1" xmlns="http://www.w3.org/2000/svg" version="1.1" xmlns:xodm="http://www.corel.com/coreldraw/odm/2003" viewBox="0 0 312.2 244.2">
  <defs>
    <style>
      .cls-1 {
        fill-rule: evenodd;
      }

      .cls-1, .cls-2 {
        fill: #fff;
        stroke-width: 0px;
      }
    </style>
  </defs>
  <g id="Capa_1">
    <g id="_2150494277744" data-name=" 2150494277744">
      <path class="cls-1" d="M185.8,205.9c-5.6,2.1-13.8,16.6-51.5,20.1-24.3,2.2-40.7-1.8-57.8-12.8C19,176.4,16.6,74.4,58.8,35.6c30.2-27.7,74.9-27.4,107.1-4.1,4.8,3.5,3.5,3.1,3.9,14.1.2,5.9.5,11.8.7,17.7l9.3.5c.3-12.1,1.4-27,4.1-38.8.9-3.8,2.3-7.8,3.1-11.4-4.7-1.6-11.1-2.7-16.4-4.2C153.3,4.7,135,0,116.5.3c-24.8.6-49.4,6.4-66.1,18.2-16.8,11.9-29.5,25.2-38.2,45.3C-13.8,123.6,1.5,206.4,69.2,235.1c32.8,13.9,71,10.6,103.2-5.1,13.3-6.4,9.8-4.6,14.5-17,1.6-4.1,2-4.4-1.1-7.1h0Z"/>
      <path class="cls-1" d="M143.5,186.9h11v-38.7l19.5,13.7,7.2,5.1,26.8-18.9v38.8h11v-52.6h-10.6l-27.2,18.9-26.7-18.9h-11c-.4,0-.7,0-1.1,0-7,0-13.6-1.5-19.1-4,20.5-4.4,35.7-19.3,35.7-37.1s-21.5-38.4-48.1-38.4-48.1,17.2-48.1,38.4,18.8,36.1,43,38.1c8.8,7.4,21.9,12.1,36.6,12.1s.7,0,1.1,0v43.4h0ZM110.9,65.2c19.5,0,35.3,12.6,35.3,28.1s-15.8,28.1-35.3,28.1-35.3-12.6-35.3-28.1,15.8-28.1,35.3-28.1h0Z"/>
      <path class="cls-2" d="M184.3,116.9h-3.6v-2.6h0c-1.5,2-3.8,2.9-6.9,2.9-5.3,0-8-2.3-8-6.9v-9.7h3.6v9.2c0,3.4,1.8,5.1,5.4,5.1s3.2-.5,4.3-1.4c1.1-.9,1.7-2.1,1.7-3.7v-9.3h3.6v16.1h0ZM195.1,116.9h-3.6v-16.1h3.6v16.1ZM198.4,92.5l-5.7,5.2h-2.8l4.9-5.2h3.6ZM234.1,116.9h-3.6v-9.3c0-1.8-.4-3.1-1.1-3.9-.8-.8-2-1.2-3.8-1.2s-2.8.5-3.9,1.5c-1.1,1-1.6,2.2-1.6,3.6v9.2h-3.6v-9.6c0-3.2-1.7-4.8-5.1-4.8s-2.9.5-3.9,1.4c-1,1-1.5,2.2-1.5,3.7v9.2h-3.6v-16.1h3.6v2.6h0c1.6-2,3.9-2.9,6.9-2.9s2.9.3,4,.9c1.1.6,1.9,1.4,2.3,2.4,1.7-2.2,4.1-3.3,7.4-3.3,4.9,0,7.4,2.2,7.4,6.6v10h0ZM242.7,96.7c-.6,0-1.2-.2-1.6-.5-.5-.3-.7-.7-.7-1.2s.2-.9.7-1.2c.4-.3,1-.5,1.6-.5s1.2.2,1.7.5c.5.3.7.7.7,1.2s-.2.9-.7,1.2c-.5.3-1,.5-1.7.5ZM244.4,116.9h-3.6v-16.1h3.6v16.1ZM266.9,116.2c-1.7.7-3.8,1.1-6.1,1.1s-5.8-.7-7.7-2.2c-2-1.5-2.9-3.4-2.9-5.8s1.1-4.8,3.2-6.4c2.1-1.6,4.9-2.4,8.4-2.4s3.7.3,5.2.8v2.6c-1.7-.8-3.4-1.3-5.3-1.3s-4.2.6-5.6,1.8c-1.5,1.2-2.2,2.7-2.2,4.7s.7,3.4,2.1,4.5c1.4,1.1,3.2,1.6,5.5,1.6s3.8-.5,5.5-1.4v2.5h0ZM281.7,117.3c-3.3,0-5.9-.8-7.9-2.3-2-1.5-3-3.5-3-6s1-4.8,3.1-6.4c2.1-1.5,4.8-2.3,8.3-2.3s5.9.7,7.8,2.2c1.9,1.5,2.8,3.5,2.8,6.2s-1,4.6-3,6.2c-2,1.6-4.7,2.3-8.1,2.3h0ZM281.9,102.6c-2.3,0-4.1.6-5.5,1.7-1.3,1.1-2,2.7-2,4.7s.7,3.4,2,4.5c1.4,1.1,3.2,1.7,5.4,1.7s4.1-.5,5.3-1.6c1.2-1.1,1.9-2.6,1.9-4.6s-.6-3.6-1.9-4.7c-1.2-1.1-3-1.6-5.3-1.6h0ZM297.1,116.3v-2.8c1.9,1,4.1,1.6,6.4,1.6s4.7-.8,4.7-2.3-.1-.8-.4-1.1c-.3-.3-.6-.6-1.1-.8-.5-.2-1-.4-1.6-.6-.6-.2-1.3-.4-2-.6-1-.3-1.9-.6-2.6-.9-.7-.3-1.4-.6-1.9-1-.5-.4-.9-.8-1.1-1.2-.3-.5-.4-1-.4-1.6s.2-1.4.7-2c.5-.6,1.1-1.1,1.9-1.5.8-.4,1.7-.7,2.7-.9,1-.2,2.1-.3,3.2-.3,1.9,0,3.7.2,5.2.7v2.6c-1.6-.8-3.5-1.2-5.7-1.2s-1.3,0-1.8.2c-.5.1-1,.3-1.4.5-.4.2-.7.4-.9.7-.2.3-.3.6-.3.9s.1.8.3,1.1c.2.3.5.5.9.8.4.2.9.4,1.5.6.6.2,1.2.4,2,.6,1,.3,1.9.6,2.7.8.8.3,1.5.6,2,1,.6.4,1,.8,1.3,1.3.3.5.4,1,.4,1.7s-.2,1.5-.7,2.1c-.5.6-1.1,1.1-2,1.5-.8.4-1.8.7-2.8.9-1.1.2-2.2.3-3.3.3-2.3,0-4.3-.3-6-1h0Z"/>
      <path class="cls-2" d="M235.9,164.6c-.8,0-1.4-.2-2-.5-.6-.3-.8-.7-.8-1.2s.3-.9.8-1.2c.5-.3,1.2-.5,2-.5s1.5.2,2.1.5c.6.3.8.7.8,1.2s-.3.9-.8,1.2c-.6.3-1.2.5-2.1.5h0ZM238,184.8h-4.4v-16.1h4.4v16.1ZM269.6,184.8h-6.1l-12.1-7.8h-.1v7.8h-4.4v-23.9h4.4v15.2h.1l11.5-7.4h5.7l-12.7,7.8,13.7,8.4h0ZM276.3,164.6c-.8,0-1.5-.2-2-.5-.6-.3-.8-.7-.8-1.2s.3-.9.8-1.2c.5-.3,1.2-.5,2-.5s1.5.2,2.1.5c.6.3.8.7.8,1.2s-.3.9-.8,1.2c-.6.3-1.2.5-2.1.5h0ZM278.4,184.8h-4.4v-16.1h4.4v16.1ZM303.4,182.6c-1.6.9-3.2,1.5-4.7,1.9-1.5.4-3.1.7-4.6.7s-4-.4-5.8-1.2c-1.8-.8-2.7-2-2.7-3.5s1.2-3.1,3.8-4.2c2.5-1.1,6.5-1.6,12-1.6h1.2v-2.1c0-.8-.2-1.4-.6-1.8-.4-.4-1-.7-1.8-.9-.8-.2-1.8-.3-3-.3-2.8,0-5.8.5-9.1,1.6v-2.6c3.6-.9,7-1.3,10.2-1.3s3.3.2,4.8.5c1.5.3,2.6.8,3.5,1.5.9.7,1.3,1.8,1.3,3.3v7.8c0,.9.1,1.4.3,1.7.2.3.5.5,1,.7.4.2.9.2,1.4.2s.6,0,1,0l.4,1.7c-1.2.3-2.5.5-3.9.5s-1.9-.2-2.8-.6c-.9-.4-1.5-1-1.9-2h0ZM302.6,180.9v-4.4h-1.7c-2.8,0-5.2.3-7.1.9-1.9.6-2.9,1.5-2.9,2.6s.5,1.4,1.4,1.9c.9.5,2.1.8,3.3.8s2.3-.1,3.5-.4c1.2-.3,2.4-.7,3.6-1.3h0Z"/>
    </g>
  </g>
</svg>