<?xml version="1.0" encoding="utf-8"?>
<!-- Generator: Adobe Illustrator 16.0.0, SVG Export Plug-In . SVG Version: 6.00 Build 0)  -->
<!DOCTYPE svg PUBLIC "-//W3C//DTD SVG 1.1//EN" "http://www.w3.org/Graphics/SVG/1.1/DTD/svg11.dtd">
<svg version="1.1" id="Capa_1" xmlns="http://www.w3.org/2000/svg" xmlns:xlink="http://www.w3.org/1999/xlink" x="0px" y="0px"
	 width="612px" height="792px" viewBox="0 0 612 792" enable-background="new 0 0 612 792" xml:space="preserve">
<path fill="#FFFFFF" d="M269.152,358.057c9.528-9.258,22.517-14.961,36.848-14.961c6.196,0,12.138,1.071,17.662,3.035"/>
<path fill="#FFFFFF" d="M323.662,346.131c-5.524-1.955-11.466-3.035-17.662-3.035c-14.331,0-27.319,5.703-36.848,14.961
	c5.891,2.711,12.427,4.267,19.346,4.267c14.076,0,26.664-6.299,35.164-16.201V346.131z"/>
<path fill="#FFFFFF" d="M331.262,349.505c16.465,8.968,27.643,26.427,27.643,46.495c0,0.875-0.025,1.742-0.068,2.609"/>
<path fill="#FFFFFF" d="M358.836,398.609c0.043-0.867,0.068-1.734,0.068-2.609c0-20.068-11.178-37.527-27.643-46.495
	c-0.264,2.022-0.451,4.063-0.451,6.154c0,19.192,11.527,35.666,28.025,42.942V398.609z"/>
<path fill="#FFFFFF" d="M358.028,405.571c-3.153-0.46-6.375-0.706-9.656-0.706c-27.531,0-51.153,16.711-61.284,40.545
	c5.873,2.253,12.248,3.494,18.912,3.494C331.95,448.904,353.515,430.221,358.028,405.571z"/>
<path fill="#FFFFFF" d="M264.469,363.25c-7.115,9.01-11.373,20.383-11.373,32.75c0,20.077,11.186,37.545,27.659,46.504
	c4.25-8.772,6.638-18.606,6.638-29.011c0-20.06-8.891-38.038-22.932-50.243H264.469z"/>
</svg>
