<?xml version="1.0" encoding="UTF-8"?>
<svg id="Capa_1" data-name="Capa 1" xmlns="http://www.w3.org/2000/svg" viewBox="0 0 720 147.49">
  <defs>
    <style>
      .cls-1 {
        fill: #008065;
      }

      .cls-2 {
        fill: #009982;
      }

      .cls-3 {
        fill: #00a887;
      }

      .cls-4 {
        fill: #009640;
      }
    </style>
  </defs>
  <path class="cls-1" d="M238.51,47.81c5.55,15.5,7.65,65.24,7.65,65.24h17.05s-2.56-67.54-15.38-95.66h-18.7s-18.75,63.71-18.75,63.71l-17.98-63.71h-19.47c-12.82,28.12-15.38,95.66-15.38,95.66h17.05s2.1-49.74,7.65-65.24l19.52,65.24h17.79l18.94-65.24Z"/>
  <path class="cls-1" d="M310.82,33.46h-9.53c-14.27,0-25.85,11.57-25.85,25.85v27.34c0,19.71,10.52,28.89,32.14,28.89s26.79-4.78,26.79-4.78v-13.78c-13.25,1.97-23.87,2.29-31.25,2.09-6.42-.17-11.37-5.69-10.8-12.09l.53-5.88h42.09c1.15-6.49,1.72-13.07,1.72-19.67v-2.13c0-14.27-11.57-25.85-25.85-25.85ZM320.59,66.56h-27.93v-7.2c0-5.64,4.57-10.21,10.21-10.21h7.52c5.64,0,10.21,4.57,10.21,10.21v7.2Z"/>
  <path class="cls-1" d="M391,109.26v8.27c0,9.24-6.51,15.03-17.41,14.84-5.86-.1-12.88-.45-22-2.68v14.35s2.68,3.44,22.58,3.44,33.29-6.89,33.29-25.26v-63.38c0-13.29-10.77-24.06-24.06-24.06h-15.06c-12.74,0-23.07,10.33-23.07,23.07v34.54c0,12.78,10.36,23.13,23.13,23.13h8.34s8.29.37,14.25-6.27ZM391,88.7c0,6.05-4.9,10.95-10.95,10.95h-6.61c-6.05,0-10.95-4.9-10.95-10.95v-26.89c0-6.05,4.9-10.95,10.95-10.95h6.61c6.05,0,10.95,4.9,10.95,10.95v26.89Z"/>
  <path class="cls-1" d="M593.62,14.11v76.03c0,13.29,10.77,24.06,24.06,24.06h15.06c12.74,0,23.07-10.33,23.07-23.07v-34.54c0-12.78-10.36-23.13-23.13-23.13h-8.34s-8.29-.37-14.25,6.27V14.11h-16.45ZM610.08,60.29c0-6.05,4.9-10.95,10.95-10.95h6.61c6.05,0,10.95,4.9,10.95,10.95v26.89c0,6.05-4.9,10.95-10.95,10.95h-6.61c-6.05,0-10.95-4.9-10.95-10.95v-26.89Z"/>
  <path class="cls-1" d="M451.45,33.46c-7.87-.19-13.86-.29-20.94,1.34-7.15,1.65-7.93,3.38-7.93,3.38v13.65s4.93-2.66,27.27-1.86c4.98.18,8.94,4.24,8.94,9.22v7.36s-20.79,0-20.79,0c-12.47,0-22.58,10.11-22.58,22.58v4.89c0,11.88,9.63,21.51,21.51,21.51h17.13c12.22,0,22.13-9.91,22.13-22.13v-34.62c0-13.77-10.99-25-24.75-25.33ZM458.33,90.55c0,5.56-4.51,10.07-10.07,10.07h-5.34c-5.56,0-10.07-4.51-10.07-10.07,0-5.25,4.26-9.51,9.51-9.51h15.98v9.51Z"/>
  <path class="cls-1" d="M557.07,33.46c-7.87-.19-13.86-.29-20.94,1.34-7.15,1.65-7.93,3.38-7.93,3.38v13.65s4.93-2.66,27.27-1.86c4.98.18,8.94,4.24,8.94,9.22v7.36s-20.79,0-20.79,0c-12.47,0-22.58,10.11-22.58,22.58v4.89c0,11.88,9.63,21.51,21.51,21.51h17.13c12.22,0,22.13-9.91,22.13-22.13v-34.62c0-13.77-10.99-25-24.75-25.33ZM563.95,90.55c0,5.56-4.51,10.07-10.07,10.07h-5.34c-5.56,0-10.07-4.51-10.07-10.07,0-5.25,4.26-9.51,9.51-9.51h15.98v9.51Z"/>
  <path class="cls-1" d="M504.55,14.11v78.84c0,3.7,3,6.7,6.7,6.7h4.26v12.06s.21,3.82-4.01,3.82h-4.62c-10.49,0-18.99-8.5-18.99-18.99V14.11h16.66Z"/>
  <path class="cls-1" d="M716.43,53.74v-16.44s-8.64-3.67-21.5-3.94c-12.86-.28-27.24,4.62-28.46,18.7-1.26,14.55,5.27,18.55,17.5,26.56,6.52,4.27,12.26,7.95,16.21,10.45,3,1.9,3.78,5.92,1.72,8.82h0c-1.2,1.69-3.17,2.68-5.25,2.61-5.22-.19-16.3-.92-31.45-3.74v13.91s4.64,3.53,23.4,4.87c0,0,28.46,2.25,30.99-14.91,2.53-17.16-7.17-23.48-18.13-30.23-10.96-6.75-18.86-10.77-18.13-15.6,1.05-6.96,12.23-7.59,33.1-1.05Z"/>
  <path class="cls-3" d="M18.89,17.6C30.1,6.71,45.38,0,62.24,0c7.29,0,14.28,1.26,20.78,3.57"/>
  <path class="cls-2" d="M83.02,3.57c-6.5-2.3-13.49-3.57-20.78-3.57C45.38,0,30.1,6.71,18.89,17.6c6.93,3.19,14.62,5.02,22.76,5.02,16.56,0,31.37-7.41,41.37-19.06Z"/>
  <path class="cls-3" d="M91.96,7.54c19.37,10.55,32.52,31.09,32.52,54.7,0,1.03-.03,2.05-.08,3.07"/>
  <path class="cls-2" d="M124.4,65.31c.05-1.02.08-2.04.08-3.07,0-23.61-13.15-44.15-32.52-54.7-.31,2.38-.53,4.78-.53,7.24,0,22.58,13.56,41.96,32.97,50.52Z"/>
  <path class="cls-4" d="M123.45,73.5c-3.71-.54-7.5-.83-11.36-.83-32.39,0-60.18,19.66-72.1,47.7,6.91,2.65,14.41,4.11,22.25,4.11,30.53,0,55.9-21.98,61.21-50.98Z"/>
  <path class="cls-1" d="M13.38,23.71C5.01,34.31,0,47.69,0,62.24c0,23.62,13.16,44.17,32.54,54.71,5-10.32,7.81-21.89,7.81-34.13,0-23.6-10.46-44.75-26.98-59.11Z"/>
</svg>